<?xml version="1.0" encoding="UTF-8"?>
<svg xmlns="http://www.w3.org/2000/svg" id="Layer_1" data-name="Layer 1" viewBox="0 0 24 24">
  <path d="m16.826,13.996h-.652c-1.198,0-2.174-.976-2.174-2.174v-.822h-1v.822h0c0,1.198-.975,2.174-2.173,2.174h-1.652c-1.199,0-2.174-.976-2.174-2.174v-.822h-1v.822c0,1.198-.975,2.174-2.174,2.174h-.652c-1.175,0-2.135-.938-2.173-2.104l2.098-6.893h2.901v3h1v-3h5c0-.338.032-.671.079-1H2.357S.021,11.677.021,11.677l-.021.146c0,.907.388,1.721,1,2.3v7.377c0,1.379,1.122,2.5,2.5,2.5h13c1.379,0,2.5-1.121,2.5-2.5h0v-6.689l-1.119-1.099c-.314.176-.671.284-1.055.284Zm1.174,7.504h0c0,.827-.673,1.5-1.5,1.5H3.5c-.827,0-1.5-.673-1.5-1.5v-6.735c.364.146.758.231,1.174.231h.652c1.126,0,2.11-.593,2.674-1.479.564.886,1.548,1.479,2.674,1.479h1.652c1.126,0,2.11-.593,2.674-1.48.564.886,1.548,1.48,2.674,1.48h.652c.415,0,.81-.085,1.174-.231v6.735ZM22.536,1.465c-.944-.944-2.2-1.465-3.535-1.465s-2.592.521-3.536,1.465c-1.949,1.949-1.949,5.121.004,7.074l3.531,3.454,3.536-3.458c1.949-1.949,1.949-5.121,0-7.07Zm-.703,6.359l-2.833,2.771-2.828-2.767c-1.56-1.56-1.56-4.097,0-5.656.756-.756,1.761-1.172,2.829-1.172s2.072.416,2.828,1.172c1.56,1.56,1.56,4.097.004,5.652Zm-1.833-2.824c0,.552-.448,1-1,1s-1-.448-1-1,.448-1,1-1,1,.448,1,1Z"/>
</svg>
