<?xml version="1.0" standalone="no"?>
<!DOCTYPE svg PUBLIC "-//W3C//DTD SVG 20010904//EN"
 "http://www.w3.org/TR/2001/REC-SVG-20010904/DTD/svg10.dtd">
<svg version="1.0" xmlns="http://www.w3.org/2000/svg"
 width="600.000000pt" height="269.000000pt" viewBox="0 0 600.000000 269.000000"
 preserveAspectRatio="xMidYMid meet">

<g transform="translate(0.000000,269.000000) scale(0.100000,-0.100000)"
fill="#000000" stroke="none">
<path d="M380 1055 c-143 -46 -206 -206 -133 -336 94 -168 359 -167 452 1 19
34 25 59 25 110 1 96 -44 169 -129 212 -51 27 -154 33 -215 13z m175 -128
c107 -107 -12 -281 -145 -212 -76 39 -81 178 -8 229 13 9 43 16 71 16 42 0 54
-5 82 -33z"/>
<path d="M1950 1059 c-134 -39 -209 -198 -151 -324 67 -147 280 -189 409 -80
124 105 97 311 -52 387 -47 24 -151 33 -206 17z m159 -125 c87 -73 50 -217
-59 -231 -105 -14 -176 99 -125 197 32 63 129 81 184 34z"/>
<path d="M792 898 c3 -152 5 -166 28 -208 37 -66 94 -94 190 -95 64 0 82 4
122 27 76 46 88 81 88 276 l0 162 -59 0 -60 0 -3 -154 c-3 -148 -4 -156 -27
-180 -18 -19 -35 -26 -61 -26 -26 0 -43 7 -61 26 -23 24 -24 32 -27 180 l-3
154 -66 0 -65 0 4 -162z"/>
<path d="M1312 833 l3 -228 63 -3 62 -3 0 61 0 60 39 0 c35 0 41 -4 80 -60
l42 -60 65 0 c35 0 64 3 64 6 0 3 -20 35 -45 71 l-45 64 39 37 c65 62 66 164
3 225 -49 47 -89 57 -237 57 l-135 0 2 -227z m263 102 c30 -29 32 -55 6 -86
-16 -20 -28 -23 -77 -24 l-59 0 -3 68 -3 67 56 0 c46 0 60 -4 80 -25z"/>
<path d="M2400 831 l0 -231 113 0 c126 0 189 14 241 54 99 75 107 259 14 342
-54 50 -86 58 -230 62 l-138 4 0 -231z m293 165 c101 -50 127 -204 48 -289
-44 -48 -78 -60 -188 -65 l-103 -5 0 193 0 192 103 -4 c74 -2 112 -8 140 -22z"/>
<path d="M3033 1039 c-81 -40 -123 -111 -123 -209 0 -132 97 -229 229 -230
149 0 245 89 245 230 0 99 -50 179 -136 214 -56 24 -163 21 -215 -5z m205 -38
c46 -23 67 -46 87 -94 34 -82 5 -187 -65 -233 -110 -73 -267 -17 -300 107 -23
84 19 182 92 218 55 27 135 28 186 2z"/>
<path d="M3500 830 l0 -230 123 0 c141 0 189 11 229 50 40 40 40 109 0 149
-15 15 -34 30 -42 33 -12 5 -11 9 6 22 49 36 55 122 11 164 -37 35 -73 42
-203 42 l-124 0 0 -230z m270 175 c51 -26 53 -100 3 -132 -19 -13 -53 -19
-125 -21 l-98 -4 0 86 0 86 95 0 c66 0 105 -5 125 -15z m28 -211 c53 -34 48
-108 -9 -136 -26 -14 -59 -18 -136 -18 l-103 0 0 88 0 87 112 -3 c78 -3 120
-8 136 -18z"/>
<path d="M3997 1053 c-2 -5 -2 -14 -1 -20 1 -7 2 -107 3 -223 1 -203 2 -210
21 -210 18 0 20 7 20 75 l0 75 83 0 82 0 53 -75 c42 -59 58 -75 78 -75 25 0
24 3 -30 79 l-55 78 37 24 c46 30 62 61 62 124 0 65 -27 110 -83 135 -33 16
-65 20 -154 20 -61 0 -114 -3 -116 -7z m248 -49 c33 -15 65 -64 65 -98 0 -9
-7 -32 -15 -52 -20 -48 -63 -64 -170 -64 l-85 0 0 115 0 115 86 0 c58 0 97 -5
119 -16z"/>
<path d="M4505 839 c-55 -121 -101 -225 -103 -230 -2 -5 7 -9 20 -9 20 0 30
11 54 61 l29 61 127 2 128 1 27 -62 c23 -52 32 -63 51 -63 29 0 37 -22 -86
248 -129 283 -115 283 -247 -9z m235 -76 c0 -1 -49 -3 -110 -3 -60 0 -110 2
-110 4 0 2 18 42 39 88 22 47 47 103 56 124 l16 39 54 -124 c30 -68 55 -126
55 -128z"/>
<path d="M4984 1046 c-98 -43 -98 -170 -1 -209 18 -7 62 -21 99 -31 94 -25
125 -61 102 -121 -19 -49 -140 -60 -219 -20 -37 18 -51 21 -57 12 -12 -19 -5
-29 37 -51 91 -47 236 -27 276 38 51 84 5 148 -131 185 -47 12 -95 32 -107 44
-31 27 -30 71 2 102 21 22 33 25 90 25 41 0 78 -6 97 -16 25 -13 32 -14 39 -2
14 21 11 25 -31 42 -49 19 -153 20 -196 2z"/>
<path d="M5350 830 c0 -223 1 -230 20 -230 19 0 20 7 20 230 0 223 -1 230 -20
230 -19 0 -20 -7 -20 -230z"/>
<path d="M5550 830 l0 -230 150 0 c143 0 150 1 150 20 0 18 -8 20 -127 22
l-128 3 -3 208 c-2 199 -3 207 -22 207 -19 0 -20 -7 -20 -230z"/>
<path d="M2063 440 c-73 -30 -47 -150 34 -150 66 0 93 90 39 136 -29 26 -39
28 -73 14z m60 -22 c9 -7 19 -25 22 -40 5 -21 1 -33 -19 -52 -30 -31 -40 -32
-66 -6 -51 51 6 140 63 98z"/>
<path d="M1796 386 c2 -32 -2 -61 -10 -71 -12 -16 -13 -16 -30 0 -20 21 -34
12 -16 -10 8 -9 25 -15 39 -13 25 3 26 6 29 76 2 39 -1 72 -6 72 -5 0 -8 -24
-6 -54z"/>
<path d="M2386 372 c-29 -74 -30 -82 -17 -82 5 0 12 11 15 25 5 21 12 25 41
25 29 0 36 -4 41 -25 6 -22 24 -36 24 -18 0 23 -55 143 -66 143 -7 0 -24 -30
-38 -68z m64 -18 c0 -2 -11 -4 -25 -4 -28 0 -30 8 -13 45 l12 26 13 -32 c7
-17 13 -33 13 -35z"/>
<path d="M2690 365 l0 -75 51 0 c31 0 48 4 44 10 -3 6 -22 10 -41 10 l-34 0 0
65 c0 37 -4 65 -10 65 -6 0 -10 -32 -10 -75z"/>
<path d="M2990 365 c0 -43 4 -75 10 -75 6 0 10 16 10 35 0 34 1 35 40 35 39 0
40 -1 40 -35 0 -19 5 -35 10 -35 6 0 10 32 10 75 0 43 -4 75 -10 75 -5 0 -10
-13 -10 -30 0 -28 -2 -30 -40 -30 -38 0 -40 2 -40 30 0 17 -4 30 -10 30 -6 0
-10 -32 -10 -75z"/>
<path d="M3320 365 l0 -75 55 0 c30 0 55 5 55 10 0 6 -20 10 -45 10 -41 0 -45
2 -45 25 0 23 4 25 46 25 27 0 43 4 39 10 -3 6 -24 10 -46 10 -35 0 -39 3 -39
24 0 22 5 25 48 29 46 3 46 3 -10 5 l-58 2 0 -75z"/>
<path d="M3640 365 c0 -43 4 -75 10 -75 6 0 10 16 10 35 0 28 4 35 20 35 19 0
33 -11 64 -55 8 -11 17 -17 21 -13 4 4 -3 21 -15 38 -21 29 -21 32 -5 44 10 7
16 22 13 37 -3 22 -8 24 -60 27 l-58 3 0 -76z m98 41 c5 -23 -13 -35 -47 -32
-20 2 -27 9 -29 30 -3 26 -2 27 35 24 28 -2 39 -8 41 -22z"/>
<path d="M3980 365 c0 -43 4 -75 10 -75 6 0 10 32 10 75 0 43 -4 75 -10 75 -6
0 -10 -32 -10 -75z"/>
<path d="M4226 372 c-29 -74 -30 -82 -17 -82 5 0 12 11 15 25 5 21 12 25 41
25 29 0 36 -4 41 -25 6 -24 24 -35 24 -15 0 24 -55 140 -66 140 -7 0 -24 -30
-38 -68z m58 1 c6 -20 4 -23 -18 -23 -30 0 -29 -2 -15 40 12 34 19 30 33 -17z"/>
</g>
</svg>
